<mxfile host="app.diagrams.net" modified="2022-08-25T01:47:03.938Z" agent="5.0 (Windows NT 10.0; Win64; x64) AppleWebKit/537.36 (KHTML, like Gecko) Chrome/104.0.0.0 Safari/537.36" etag="7cNm78t3Q_vafigd6kHm" version="20.2.7" type="github">
  <diagram id="EgG1DCCINBg9jOTqoU4k" name="Halaman-1">
    <mxGraphModel dx="1736" dy="2031" grid="1" gridSize="10" guides="1" tooltips="1" connect="1" arrows="1" fold="1" page="1" pageScale="1" pageWidth="827" pageHeight="1169" math="0" shadow="0">
      <root>
        <mxCell id="0" />
        <mxCell id="1" parent="0" />
        <mxCell id="0ksnwtKrrYkk5HXPj05j-1" value="User(Pelanggan)" style="shape=umlActor;verticalLabelPosition=bottom;verticalAlign=top;html=1;outlineConnect=0;" vertex="1" parent="1">
          <mxGeometry x="20" y="220" width="70" height="140" as="geometry" />
        </mxCell>
        <mxCell id="0ksnwtKrrYkk5HXPj05j-2" value="" style="endArrow=none;html=1;rounded=0;entryX=1;entryY=0.5;entryDx=0;entryDy=0;endFill=0;" edge="1" parent="1" source="0ksnwtKrrYkk5HXPj05j-1" target="0ksnwtKrrYkk5HXPj05j-4">
          <mxGeometry width="50" height="50" relative="1" as="geometry">
            <mxPoint x="-80" y="330" as="sourcePoint" />
            <mxPoint x="300" y="200" as="targetPoint" />
            <Array as="points" />
          </mxGeometry>
        </mxCell>
        <mxCell id="0ksnwtKrrYkk5HXPj05j-3" value="" style="endArrow=none;html=1;rounded=0;exitX=0;exitY=0.5;exitDx=0;exitDy=0;endFill=0;" edge="1" parent="1" source="0ksnwtKrrYkk5HXPj05j-23" target="0ksnwtKrrYkk5HXPj05j-1">
          <mxGeometry width="50" height="50" relative="1" as="geometry">
            <mxPoint x="320" y="370" as="sourcePoint" />
            <mxPoint x="-30" y="280" as="targetPoint" />
          </mxGeometry>
        </mxCell>
        <mxCell id="0ksnwtKrrYkk5HXPj05j-7" value="&amp;lt;&amp;lt;Include&amp;gt;&amp;gt;" style="edgeStyle=orthogonalEdgeStyle;rounded=0;orthogonalLoop=1;jettySize=auto;html=1;dashed=1;endArrow=open;endFill=0;entryX=0;entryY=0.5;entryDx=0;entryDy=0;exitX=0.5;exitY=1;exitDx=0;exitDy=0;" edge="1" parent="1" source="0ksnwtKrrYkk5HXPj05j-4" target="0ksnwtKrrYkk5HXPj05j-5">
          <mxGeometry relative="1" as="geometry" />
        </mxCell>
        <mxCell id="0ksnwtKrrYkk5HXPj05j-4" value="Pesan makanan" style="ellipse;whiteSpace=wrap;html=1;direction=west;" vertex="1" parent="1">
          <mxGeometry x="300" y="140" width="146" height="70" as="geometry" />
        </mxCell>
        <mxCell id="0ksnwtKrrYkk5HXPj05j-5" value="transaksi" style="ellipse;whiteSpace=wrap;html=1;" vertex="1" parent="1">
          <mxGeometry x="590" y="-20" width="120" height="80" as="geometry" />
        </mxCell>
        <mxCell id="0ksnwtKrrYkk5HXPj05j-9" value="transaksi voucher" style="ellipse;whiteSpace=wrap;html=1;" vertex="1" parent="1">
          <mxGeometry x="870" y="-170" width="120" height="80" as="geometry" />
        </mxCell>
        <mxCell id="0ksnwtKrrYkk5HXPj05j-10" value="" style="endArrow=block;html=1;rounded=0;exitX=1;exitY=0;exitDx=0;exitDy=0;entryX=0;entryY=0.5;entryDx=0;entryDy=0;endFill=0;strokeWidth=1;" edge="1" parent="1" source="0ksnwtKrrYkk5HXPj05j-5" target="0ksnwtKrrYkk5HXPj05j-9">
          <mxGeometry width="50" height="50" relative="1" as="geometry">
            <mxPoint x="460" y="120" as="sourcePoint" />
            <mxPoint x="510" y="70" as="targetPoint" />
          </mxGeometry>
        </mxCell>
        <mxCell id="0ksnwtKrrYkk5HXPj05j-11" value="transaksi tunai" style="ellipse;whiteSpace=wrap;html=1;" vertex="1" parent="1">
          <mxGeometry x="870" y="-20" width="120" height="80" as="geometry" />
        </mxCell>
        <mxCell id="0ksnwtKrrYkk5HXPj05j-12" value="" style="endArrow=block;html=1;rounded=0;exitX=1;exitY=0.5;exitDx=0;exitDy=0;entryX=0;entryY=0.5;entryDx=0;entryDy=0;endFill=0;" edge="1" parent="1" source="0ksnwtKrrYkk5HXPj05j-5" target="0ksnwtKrrYkk5HXPj05j-11">
          <mxGeometry width="50" height="50" relative="1" as="geometry">
            <mxPoint x="460" y="120" as="sourcePoint" />
            <mxPoint x="510" y="70" as="targetPoint" />
          </mxGeometry>
        </mxCell>
        <mxCell id="0ksnwtKrrYkk5HXPj05j-13" value="transaksi non-tunai" style="ellipse;whiteSpace=wrap;html=1;" vertex="1" parent="1">
          <mxGeometry x="870" y="140" width="120" height="80" as="geometry" />
        </mxCell>
        <mxCell id="0ksnwtKrrYkk5HXPj05j-14" value="" style="endArrow=block;html=1;rounded=0;entryX=0;entryY=0.5;entryDx=0;entryDy=0;endFill=0;" edge="1" parent="1" source="0ksnwtKrrYkk5HXPj05j-5" target="0ksnwtKrrYkk5HXPj05j-13">
          <mxGeometry width="50" height="50" relative="1" as="geometry">
            <mxPoint x="460" y="220" as="sourcePoint" />
            <mxPoint x="510" y="170" as="targetPoint" />
          </mxGeometry>
        </mxCell>
        <mxCell id="0ksnwtKrrYkk5HXPj05j-15" value="catat transaksi" style="ellipse;whiteSpace=wrap;html=1;" vertex="1" parent="1">
          <mxGeometry x="1190" y="-20" width="120" height="80" as="geometry" />
        </mxCell>
        <mxCell id="0ksnwtKrrYkk5HXPj05j-16" value="&amp;lt;&amp;lt;Include&amp;gt;&amp;gt;" style="endArrow=open;html=1;rounded=0;endFill=0;entryX=1;entryY=0.5;entryDx=0;entryDy=0;exitX=0;exitY=0;exitDx=0;exitDy=0;dashed=1;" edge="1" parent="1" source="0ksnwtKrrYkk5HXPj05j-15" target="0ksnwtKrrYkk5HXPj05j-9">
          <mxGeometry width="50" height="50" relative="1" as="geometry">
            <mxPoint x="1040" y="-50" as="sourcePoint" />
            <mxPoint x="680" y="220" as="targetPoint" />
          </mxGeometry>
        </mxCell>
        <mxCell id="0ksnwtKrrYkk5HXPj05j-17" value="&amp;lt;&amp;lt;Include&amp;gt;&amp;gt;" style="endArrow=open;html=1;rounded=0;entryX=1;entryY=0.5;entryDx=0;entryDy=0;endFill=0;dashed=1;" edge="1" parent="1" source="0ksnwtKrrYkk5HXPj05j-15" target="0ksnwtKrrYkk5HXPj05j-11">
          <mxGeometry width="50" height="50" relative="1" as="geometry">
            <mxPoint x="1050" y="20" as="sourcePoint" />
            <mxPoint x="680" y="220" as="targetPoint" />
            <Array as="points" />
          </mxGeometry>
        </mxCell>
        <mxCell id="0ksnwtKrrYkk5HXPj05j-18" value="&amp;lt;&amp;lt;Include&amp;gt;&amp;gt;" style="endArrow=open;html=1;rounded=0;entryX=1;entryY=0.5;entryDx=0;entryDy=0;endFill=0;exitX=0;exitY=1;exitDx=0;exitDy=0;dashed=1;" edge="1" parent="1" source="0ksnwtKrrYkk5HXPj05j-15" target="0ksnwtKrrYkk5HXPj05j-13">
          <mxGeometry width="50" height="50" relative="1" as="geometry">
            <mxPoint x="1180" y="140" as="sourcePoint" />
            <mxPoint x="1120" y="170" as="targetPoint" />
          </mxGeometry>
        </mxCell>
        <mxCell id="0ksnwtKrrYkk5HXPj05j-19" value="kasir" style="shape=umlActor;verticalLabelPosition=bottom;verticalAlign=top;html=1;outlineConnect=0;" vertex="1" parent="1">
          <mxGeometry x="1520" y="190" width="80" height="170" as="geometry" />
        </mxCell>
        <mxCell id="0ksnwtKrrYkk5HXPj05j-20" value="buat laporan" style="ellipse;whiteSpace=wrap;html=1;" vertex="1" parent="1">
          <mxGeometry x="1180" y="520" width="120" height="80" as="geometry" />
        </mxCell>
        <mxCell id="0ksnwtKrrYkk5HXPj05j-21" value="buat struk" style="ellipse;whiteSpace=wrap;html=1;" vertex="1" parent="1">
          <mxGeometry x="870" y="240" width="120" height="80" as="geometry" />
        </mxCell>
        <mxCell id="0ksnwtKrrYkk5HXPj05j-23" value="struk" style="ellipse;whiteSpace=wrap;html=1;" vertex="1" parent="1">
          <mxGeometry x="300" y="242.5" width="150" height="75" as="geometry" />
        </mxCell>
        <mxCell id="0ksnwtKrrYkk5HXPj05j-24" value="" style="endArrow=none;html=1;rounded=0;exitX=1;exitY=0.5;exitDx=0;exitDy=0;endFill=0;" edge="1" parent="1" source="0ksnwtKrrYkk5HXPj05j-15" target="0ksnwtKrrYkk5HXPj05j-19">
          <mxGeometry width="50" height="50" relative="1" as="geometry">
            <mxPoint x="1270" y="380" as="sourcePoint" />
            <mxPoint x="1320" y="330" as="targetPoint" />
          </mxGeometry>
        </mxCell>
        <mxCell id="0ksnwtKrrYkk5HXPj05j-25" value="" style="endArrow=none;html=1;rounded=0;entryX=1;entryY=0.5;entryDx=0;entryDy=0;endFill=0;" edge="1" parent="1" source="0ksnwtKrrYkk5HXPj05j-19" target="0ksnwtKrrYkk5HXPj05j-21">
          <mxGeometry width="50" height="50" relative="1" as="geometry">
            <mxPoint x="1270" y="380" as="sourcePoint" />
            <mxPoint x="1350" y="310" as="targetPoint" />
          </mxGeometry>
        </mxCell>
        <mxCell id="0ksnwtKrrYkk5HXPj05j-26" value="" style="endArrow=none;html=1;rounded=0;entryX=1;entryY=0.5;entryDx=0;entryDy=0;endFill=0;" edge="1" parent="1" target="0ksnwtKrrYkk5HXPj05j-20">
          <mxGeometry width="50" height="50" relative="1" as="geometry">
            <mxPoint x="1510" y="340" as="sourcePoint" />
            <mxPoint x="1320" y="330" as="targetPoint" />
          </mxGeometry>
        </mxCell>
        <mxCell id="0ksnwtKrrYkk5HXPj05j-28" value="&amp;lt;&amp;lt;Include&amp;gt;&amp;gt;" style="endArrow=open;html=1;rounded=0;exitX=0;exitY=0.5;exitDx=0;exitDy=0;entryX=1;entryY=0.5;entryDx=0;entryDy=0;endFill=0;dashed=1;" edge="1" parent="1" source="0ksnwtKrrYkk5HXPj05j-21" target="0ksnwtKrrYkk5HXPj05j-23">
          <mxGeometry width="50" height="50" relative="1" as="geometry">
            <mxPoint x="920" y="320" as="sourcePoint" />
            <mxPoint x="970" y="270" as="targetPoint" />
          </mxGeometry>
        </mxCell>
        <mxCell id="0ksnwtKrrYkk5HXPj05j-30" value="lihat diskon" style="ellipse;whiteSpace=wrap;html=1;" vertex="1" parent="1">
          <mxGeometry x="760" y="420" width="120" height="80" as="geometry" />
        </mxCell>
        <mxCell id="0ksnwtKrrYkk5HXPj05j-31" value="informasi toko" style="ellipse;whiteSpace=wrap;html=1;" vertex="1" parent="1">
          <mxGeometry x="970" y="420" width="120" height="80" as="geometry" />
        </mxCell>
        <mxCell id="0ksnwtKrrYkk5HXPj05j-32" value="&amp;lt;&amp;lt;Extend&amp;gt;&amp;gt;" style="endArrow=open;html=1;rounded=0;exitX=0.5;exitY=0;exitDx=0;exitDy=0;entryX=0;entryY=1;entryDx=0;entryDy=0;dashed=1;endFill=0;" edge="1" parent="1" source="0ksnwtKrrYkk5HXPj05j-30" target="0ksnwtKrrYkk5HXPj05j-21">
          <mxGeometry width="50" height="50" relative="1" as="geometry">
            <mxPoint x="920" y="320" as="sourcePoint" />
            <mxPoint x="900" y="330" as="targetPoint" />
          </mxGeometry>
        </mxCell>
        <mxCell id="0ksnwtKrrYkk5HXPj05j-33" value="&amp;lt;&amp;lt;Include&amp;gt;&amp;gt;" style="endArrow=open;html=1;rounded=0;exitX=0.5;exitY=0;exitDx=0;exitDy=0;entryX=1;entryY=1;entryDx=0;entryDy=0;dashed=1;endFill=0;" edge="1" parent="1" source="0ksnwtKrrYkk5HXPj05j-31" target="0ksnwtKrrYkk5HXPj05j-21">
          <mxGeometry width="50" height="50" relative="1" as="geometry">
            <mxPoint x="920" y="320" as="sourcePoint" />
            <mxPoint x="970" y="270" as="targetPoint" />
          </mxGeometry>
        </mxCell>
        <mxCell id="0ksnwtKrrYkk5HXPj05j-34" value="laporan pembayaran" style="ellipse;whiteSpace=wrap;html=1;" vertex="1" parent="1">
          <mxGeometry x="970" y="650" width="120" height="80" as="geometry" />
        </mxCell>
        <mxCell id="0ksnwtKrrYkk5HXPj05j-35" value="laporan keuangan" style="ellipse;whiteSpace=wrap;html=1;" vertex="1" parent="1">
          <mxGeometry x="970" y="520" width="120" height="80" as="geometry" />
        </mxCell>
        <mxCell id="0ksnwtKrrYkk5HXPj05j-36" value="&amp;lt;&amp;lt;Include&amp;gt;&amp;gt;" style="endArrow=open;html=1;rounded=0;exitX=1;exitY=0.5;exitDx=0;exitDy=0;endFill=0;entryX=0;entryY=0.5;entryDx=0;entryDy=0;dashed=1;" edge="1" parent="1" source="0ksnwtKrrYkk5HXPj05j-35" target="0ksnwtKrrYkk5HXPj05j-20">
          <mxGeometry width="50" height="50" relative="1" as="geometry">
            <mxPoint x="1080" y="660" as="sourcePoint" />
            <mxPoint x="1130" y="590" as="targetPoint" />
          </mxGeometry>
        </mxCell>
        <mxCell id="0ksnwtKrrYkk5HXPj05j-37" value="&amp;lt;&amp;lt;Include&amp;gt;&amp;gt;" style="endArrow=open;html=1;rounded=0;exitX=0.977;exitY=0.381;exitDx=0;exitDy=0;entryX=0;entryY=1;entryDx=0;entryDy=0;endFill=0;dashed=1;exitPerimeter=0;" edge="1" parent="1" source="0ksnwtKrrYkk5HXPj05j-34" target="0ksnwtKrrYkk5HXPj05j-20">
          <mxGeometry width="50" height="50" relative="1" as="geometry">
            <mxPoint x="1080" y="660" as="sourcePoint" />
            <mxPoint x="1130" y="610" as="targetPoint" />
          </mxGeometry>
        </mxCell>
      </root>
    </mxGraphModel>
  </diagram>
</mxfile>
